<svg width="72" height="72" viewBox="0 0 72 72" fill="none" xmlns="http://www.w3.org/2000/svg">
<rect x="72" y="72" width="72" height="72" rx="14.4" transform="rotate(-180 72 72)" fill="#485CC7"/>
<path d="M26.526 42.8958C25.9854 43.4363 25.9597 44.4016 26.5388 44.9678C27.1051 45.5341 28.0703 45.5212 28.6109 44.9807L36.4871 37.0916L44.3762 44.9807C44.9296 45.5341 45.882 45.5341 46.4483 44.9678C47.0017 44.3887 47.0145 43.4492 46.4483 42.8958L38.572 35.0067L46.4483 27.1304C47.0145 26.577 47.0145 25.6247 46.4483 25.0584C45.8691 24.505 44.9296 24.4921 44.3762 25.0455L36.4871 32.9347L28.6109 25.0455C28.0703 24.505 27.0922 24.4793 26.5388 25.0584C25.9726 25.6247 25.9854 26.5899 26.526 27.1304L34.4151 35.0067L26.526 42.8958Z" fill="white" stroke="white" stroke-width="1.5"/>
</svg>
