<svg width="32" height="32" viewBox="0 0 32 32" fill="none" xmlns="http://www.w3.org/2000/svg">
<g id="Group 10">
<circle id="Ellipse 1" cx="16" cy="16" r="16" fill="#485CC7"/>
<path id="Vector" d="M23.3405 11.6333C23.3485 11.835 23.3516 12.0392 23.3516 12.2408C23.3516 18.4527 19.5419 25.613 12.5756 25.613C10.4355 25.613 8.44588 24.835 6.76929 23.5005C7.76097 23.6493 8.76656 23.5542 9.72859 23.2205C10.6906 22.8869 11.5902 22.3213 12.376 21.5561C11.5858 21.5375 10.82 21.2131 10.1857 20.6281C9.55134 20.0431 9.08023 19.2268 8.83818 18.2933C9.40614 18.4251 9.99067 18.3974 10.5489 18.2124C9.69164 17.9967 8.92086 17.42 8.36716 16.5798C7.81346 15.7397 7.5109 14.6879 7.51076 13.6027V13.5442C8.03671 13.9072 8.62494 14.1091 9.22648 14.133C8.42367 13.469 7.85538 12.4499 7.6376 11.2837C7.41981 10.1175 7.56895 8.89212 8.05457 7.85771C9.00553 9.30978 10.192 10.4974 11.5371 11.3435C12.8821 12.1896 14.3555 12.6751 15.8616 12.7687C15.7964 12.4171 15.7638 12.0575 15.7643 11.6968C15.7643 11.0799 15.8622 10.4691 16.0525 9.89915C16.2428 9.32922 16.5218 8.81139 16.8734 8.37524C17.225 7.93908 17.6425 7.59314 18.1019 7.35717C18.5613 7.12121 19.0537 6.99984 19.5509 7.00001C20.0691 6.99896 20.5819 7.13002 21.0576 7.38506C21.5333 7.6401 21.9616 8.01368 22.3161 8.48263C23.1641 8.27436 23.9773 7.88877 24.7211 7.34234C24.4382 8.4306 23.8463 9.3543 23.0556 9.94159C23.8063 9.83117 24.5395 9.58192 25.2308 9.20215C24.723 10.1463 24.0827 10.9697 23.3405 11.6333Z" fill="white"/>
</g>
</svg>
