<svg width="32" height="32" viewBox="0 0 32 32" fill="none" xmlns="http://www.w3.org/2000/svg">
<path d="M32 16C32 24.8366 24.8366 32 16 32C7.16344 32 0 24.8366 0 16C0 7.16344 7.16344 0 16 0C24.8366 0 32 7.16344 32 16Z" fill="#485CC7"/>
<path d="M23.5317 9.0097C22.1535 8.38986 20.6614 7.93998 19.1071 7.68005C19.0934 7.67963 19.0799 7.68209 19.0673 7.68727C19.0548 7.69246 19.0436 7.70023 19.0345 7.71004C18.848 8.03995 18.6304 8.46984 18.4853 8.79975C16.8367 8.55982 15.1601 8.55982 13.5115 8.79975C13.3664 8.45984 13.1488 8.03995 12.9519 7.71004C12.9416 7.69004 12.9105 7.68005 12.8794 7.68005C11.325 7.93998 9.84326 8.38986 8.45472 9.0097C8.44436 9.0097 8.434 9.01969 8.42364 9.02969C5.60512 13.0986 4.82796 17.0576 5.21136 20.9766C5.21136 20.9966 5.22172 21.0166 5.24244 21.0266C7.10764 22.3462 8.9003 23.146 10.6722 23.6759C10.7033 23.6859 10.7344 23.6759 10.7448 23.6559C11.1593 23.106 11.5323 22.5262 11.8535 21.9163C11.8742 21.8763 11.8535 21.8363 11.8121 21.8263C11.2214 21.6064 10.6619 21.3465 10.1127 21.0465C10.0712 21.0266 10.0712 20.9666 10.1023 20.9366C10.2163 20.8566 10.3303 20.7666 10.4443 20.6866C10.465 20.6666 10.4961 20.6666 10.5168 20.6766C14.0814 22.2462 17.9258 22.2462 21.4489 20.6766C21.4696 20.6666 21.5007 20.6666 21.5214 20.6866C21.6354 20.7766 21.7494 20.8566 21.8634 20.9466C21.9048 20.9766 21.9048 21.0365 21.853 21.0565C21.3142 21.3665 20.7443 21.6164 20.1536 21.8363C20.1122 21.8463 20.1018 21.8963 20.1122 21.9263C20.4438 22.5362 20.8168 23.116 21.2209 23.6659C21.252 23.6759 21.2831 23.6859 21.3142 23.6759C23.0965 23.146 24.8892 22.3462 26.7543 21.0266C26.7751 21.0166 26.7854 20.9966 26.7854 20.9766C27.2414 16.4478 26.029 12.5188 23.5732 9.02969C23.5628 9.01969 23.5524 9.0097 23.5317 9.0097ZM12.3924 18.5872C11.325 18.5872 10.4339 17.6374 10.4339 16.4677C10.4339 15.2981 11.3043 14.3483 12.3924 14.3483C13.4907 14.3483 14.3612 15.308 14.3508 16.4677C14.3508 17.6374 13.4804 18.5872 12.3924 18.5872ZM19.6148 18.5872C18.5475 18.5872 17.6563 17.6374 17.6563 16.4677C17.6563 15.2981 18.5268 14.3483 19.6148 14.3483C20.7132 14.3483 21.5836 15.308 21.5733 16.4677C21.5733 17.6374 20.7132 18.5872 19.6148 18.5872Z" fill="white"/>
</svg>
