<svg width="32" height="32" viewBox="0 0 32 32" fill="none" xmlns="http://www.w3.org/2000/svg">
<circle cx="16" cy="16" r="16" fill="#485CC7"/>
<g clip-path="url(#clip0_364_4935)">
<path d="M19.6542 7.80682C20.4912 7.8453 21.0698 7.96831 21.6045 8.17583C22.1114 8.36537 22.5703 8.66428 22.9486 9.0513C23.3356 9.42958 23.6345 9.88851 23.824 10.3954C24.0316 10.9307 24.1546 11.5087 24.1931 12.3456C24.2405 13.3833 24.246 13.7489 24.246 16.0001C24.246 18.2513 24.2405 18.6168 24.1931 19.6545C24.1546 20.4915 24.0316 21.0701 23.824 21.6054C23.6344 22.1121 23.3355 22.5707 22.9486 22.9488C22.5703 23.3359 22.1114 23.6348 21.6045 23.8243C21.0691 24.0318 20.4912 24.1548 19.6542 24.1933C18.6166 24.2407 18.2517 24.2462 15.9998 24.2462C13.7479 24.2462 13.3823 24.2407 12.3454 24.1933C11.5084 24.1548 10.9298 24.0318 10.3945 23.8243C9.88781 23.6347 9.42913 23.3358 9.05106 22.9488C8.66403 22.5705 8.36512 22.1116 8.17559 21.6047C7.96806 21.0694 7.84506 20.4915 7.80657 19.6545C7.75916 18.6182 7.75366 18.2526 7.75366 16.0001C7.75366 13.7482 7.75916 13.3819 7.80657 12.3456C7.84506 11.5087 7.96806 10.93 8.17559 10.3954C8.36512 9.88851 8.66403 9.42958 9.05106 9.0513C9.42914 8.66436 9.88782 8.36546 10.3945 8.17583C10.9305 7.96831 11.5084 7.8453 12.3454 7.80682C13.3817 7.7594 13.7472 7.75391 15.9998 7.75391C18.2517 7.75391 18.618 7.7594 19.6542 7.80682ZM15.9998 9.58661C13.7734 9.58661 13.4325 9.59142 12.4285 9.63747C11.7915 9.66633 11.4095 9.74741 11.0583 9.88416C10.7594 10.001 10.569 10.1247 10.3464 10.3466C10.1237 10.5693 10.0001 10.7596 9.88392 11.0586C9.74786 11.409 9.66608 11.7918 9.63722 12.4288C9.59118 13.4328 9.58637 13.7736 9.58637 16.0001C9.58637 18.2265 9.59118 18.5674 9.63722 19.5713C9.66608 20.2083 9.74717 20.5904 9.88392 20.9409C10.0007 21.2405 10.1244 21.4308 10.3464 21.6535C10.569 21.8761 10.7594 21.9998 11.0583 22.116C11.4088 22.252 11.7915 22.3338 12.4285 22.3627C13.4332 22.4087 13.774 22.4135 15.9998 22.4135C18.2263 22.4135 18.5664 22.4087 19.5711 22.3627C20.2081 22.3338 20.5902 22.2527 20.9413 22.116C21.2402 21.9991 21.4306 21.8754 21.6532 21.6535C21.8759 21.4308 21.9996 21.2405 22.1157 20.9416C22.2518 20.5911 22.3336 20.2083 22.3624 19.5713C22.4085 18.5667 22.4133 18.2258 22.4133 16.0001C22.4133 13.7743 22.4085 13.4334 22.3624 12.4288C22.3336 11.7918 22.2525 11.4097 22.1157 11.0592C22.0185 10.7892 21.8603 10.5453 21.6532 10.3466C21.4545 10.1396 21.2107 9.98131 20.9406 9.88416C20.5902 9.7481 20.2074 9.66633 19.5704 9.63747C18.5664 9.59142 18.2256 9.58661 15.9991 9.58661H15.9998ZM15.9998 20.2757C14.8658 20.2757 13.7783 19.8252 12.9765 19.0234C12.1747 18.2216 11.7242 17.134 11.7242 16.0001C11.7242 14.8661 12.1747 13.7786 12.9765 12.9767C13.7783 12.1749 14.8658 11.7244 15.9998 11.7244C17.1338 11.7244 18.2213 12.1749 19.0231 12.9767C19.825 13.7786 20.2754 14.8661 20.2754 16.0001C20.2754 17.134 19.825 18.2216 19.0231 19.0234C18.2213 19.8252 17.1338 20.2757 15.9998 20.2757ZM15.9998 18.4437C16.6479 18.4437 17.2694 18.1862 17.7277 17.728C18.186 17.2697 18.4434 16.6481 18.4434 16.0001C18.4434 15.352 18.186 14.7304 17.7277 14.2722C17.2694 13.8139 16.6479 13.5565 15.9998 13.5565C15.3517 13.5565 14.7302 13.8139 14.2719 14.2722C13.8137 14.7304 13.5562 15.352 13.5562 16.0001C13.5562 16.6481 13.8137 17.2697 14.2719 17.728C14.7302 18.1862 15.3517 18.4437 15.9998 18.4437ZM20.2754 12.6404C20.0324 12.6404 19.7993 12.5439 19.6275 12.372C19.4556 12.2002 19.3591 11.9671 19.3591 11.7241C19.3591 11.4811 19.4556 11.248 19.6275 11.0761C19.7993 10.9043 20.0324 10.8077 20.2754 10.8077C20.5185 10.8077 20.7516 10.9043 20.9234 11.0761C21.0953 11.248 21.1918 11.4811 21.1918 11.7241C21.1918 11.9671 21.0953 12.2002 20.9234 12.372C20.7516 12.5439 20.5185 12.6404 20.2754 12.6404Z" fill="white"/>
</g>
<defs>
<clipPath id="clip0_364_4935">
<rect width="16.4923" height="16.4923" fill="white" transform="translate(7.75366 7.75391)"/>
</clipPath>
</defs>
</svg>
