<svg width="168" height="47" viewBox="0 0 168 47" fill="none" xmlns="http://www.w3.org/2000/svg">
<g clip-path="url(#clip0_364_4993)">
<path d="M45.1232 21.3426C42.6968 19.5451 39.3143 18.6693 35.0319 18.6693H14.4548C11.7871 18.6693 10.0507 17.0919 10.0507 14.2536C10.0507 11.4153 11.7262 9.84019 14.4548 9.84019H47.3557V0H14.4548C5.08735 0 0 5.67668 0 13.2448C0 21.0033 5.45944 26.4278 14.3307 26.4278H35.0319C38.507 26.4278 40.4914 28.1931 40.4914 31.2837C40.4914 34.1862 38.507 36.0135 35.0319 36.0135H1.12752V45.8537H35.0319C42.7983 45.8537 47.4076 42.1693 48.9883 36.7173C46.5078 32.6868 45.1007 27.8125 45.1007 22.4545C45.1007 22.0808 45.1007 21.7117 45.1232 21.3426Z" fill="url(#paint0_linear_364_4993)"/>
<path d="M90.8641 1.83408C87.8158 0.591356 84.5575 -0.0317749 81.2734 -6.88365e-05H69.6262C56.786 -6.88365e-05 47.3555 8.95515 47.3555 22.4545C47.3555 22.8626 47.3555 23.2661 47.3825 23.6673C47.5075 26.9085 48.256 30.0935 49.5857 33.0421C53.1058 40.7615 60.5046 45.8536 69.6262 45.8536H81.2734C93.1868 45.8536 102.087 37.4165 103.526 25.7972L90.8641 1.83408ZM81.2734 36.0134H69.6262C62.3063 36.0134 57.0341 30.527 57.0341 22.9589C57.0341 15.3265 62.3695 9.84013 69.6262 9.84013H81.2734C88.7804 9.84013 94.0527 15.3265 94.0527 22.9589C94.0527 30.527 88.7804 36.0134 81.2734 36.0134Z" fill="url(#paint1_linear_364_4993)"/>
<path d="M156.725 0L143.195 33.2439L127.41 0H116.134L126.979 22.0098L120.644 33.2439L103.732 0H92.4565L92.4768 0.0389756L94.4342 3.74166L103.707 21.2967L105.845 25.341L115.641 43.8842C116.768 45.9821 118.572 47 120.708 47C122.708 47 124.523 46.0462 125.648 43.8842L131.92 31.639L138.191 43.8842C139.255 46.0462 141.122 47 143.195 47C145.267 47 147.071 45.9821 148.199 43.8842L168 0H156.725Z" fill="url(#paint2_linear_364_4993)"/>
</g>
<defs>
<linearGradient id="paint0_linear_364_4993" x1="0" y1="22.9268" x2="48.9883" y2="22.9268" gradientUnits="userSpaceOnUse">
<stop stop-color="#485CC7"/>
<stop offset="1" stop-color="#489FDF"/>
</linearGradient>
<linearGradient id="paint1_linear_364_4993" x1="47.3555" y1="-6.84735e-05" x2="103.526" y2="-6.84735e-05" gradientUnits="userSpaceOnUse">
<stop stop-color="#485CC7"/>
<stop offset="1" stop-color="#489FDF"/>
</linearGradient>
<linearGradient id="paint2_linear_364_4993" x1="92.4565" y1="23.5" x2="168" y2="23.5" gradientUnits="userSpaceOnUse">
<stop stop-color="#485CC7"/>
<stop offset="1" stop-color="#489FDF"/>
</linearGradient>
<clipPath id="clip0_364_4993">
<rect width="168" height="47" fill="white"/>
</clipPath>
</defs>
</svg>
