<svg width="32" height="32" viewBox="0 0 32 32" fill="none" xmlns="http://www.w3.org/2000/svg">
<circle cx="16" cy="16" r="16" fill="#3CDBC0"/>
<path d="M23.3403 11.6333C23.3483 11.835 23.3513 12.0392 23.3513 12.2408C23.3513 18.4527 19.5416 25.613 12.5754 25.613C10.4353 25.613 8.44563 24.835 6.76904 23.5005C7.76072 23.6493 8.76632 23.5542 9.72834 23.2205C10.6904 22.8869 11.59 22.3213 12.3757 21.5561C11.5855 21.5375 10.8197 21.2131 10.1854 20.6281C9.5511 20.0431 9.07999 19.2268 8.83794 18.2933C9.40589 18.4251 9.99042 18.3974 10.5486 18.2124C9.6914 17.9967 8.92061 17.42 8.36692 16.5798C7.81322 15.7397 7.51066 14.6879 7.51051 13.6027V13.5442C8.03646 13.9072 8.62469 14.1091 9.22623 14.133C8.42343 13.469 7.85514 12.4499 7.63735 11.2837C7.41957 10.1175 7.56871 8.89212 8.05433 7.85771C9.00529 9.30978 10.1918 10.4974 11.5368 11.3435C12.8818 12.1896 14.3552 12.6751 15.8613 12.7687C15.7962 12.4171 15.7635 12.0575 15.764 11.6968C15.764 11.0799 15.862 10.4691 16.0523 9.89915C16.2426 9.32922 16.5215 8.81139 16.8732 8.37524C17.2248 7.93908 17.6422 7.59314 18.1016 7.35717C18.5611 7.12121 19.0534 6.99984 19.5506 7.00001C20.0688 6.99896 20.5817 7.13002 21.0573 7.38506C21.533 7.6401 21.9614 8.01368 22.3159 8.48263C23.1638 8.27436 23.9771 7.88877 24.7209 7.34234C24.438 8.4306 23.8461 9.3543 23.0553 9.94159C23.8061 9.83117 24.5393 9.58192 25.2306 9.20215C24.7227 10.1463 24.0825 10.9697 23.3403 11.6333V11.6333Z" fill="white"/>
</svg>
