<svg width="32" height="32" viewBox="0 0 32 32" fill="none" xmlns="http://www.w3.org/2000/svg">
<circle cx="16" cy="16" r="16" fill="#3CDBC0"/>
<g clip-path="url(#clip0_522_4808)">
<path d="M19.6545 7.80682C20.4915 7.8453 21.0701 7.96831 21.6047 8.17583C22.1116 8.36537 22.5705 8.66428 22.9488 9.0513C23.3358 9.42958 23.6348 9.88851 23.8243 10.3954C24.0318 10.9307 24.1548 11.5087 24.1933 12.3456C24.2407 13.3833 24.2462 13.7489 24.2462 16.0001C24.2462 18.2513 24.2407 18.6168 24.1933 19.6545C24.1548 20.4915 24.0318 21.0701 23.8243 21.6054C23.6347 22.1121 23.3358 22.5707 22.9488 22.9488C22.5706 23.3359 22.1116 23.6348 21.6047 23.8243C21.0694 24.0318 20.4915 24.1548 19.6545 24.1933C18.6168 24.2407 18.2519 24.2462 16.0001 24.2462C13.7482 24.2462 13.3826 24.2407 12.3456 24.1933C11.5087 24.1548 10.93 24.0318 10.3947 23.8243C9.88806 23.6347 9.42937 23.3358 9.0513 22.9488C8.66428 22.5705 8.36537 22.1116 8.17583 21.6047C7.96831 21.0694 7.8453 20.4915 7.80682 19.6545C7.7594 18.6182 7.75391 18.2526 7.75391 16.0001C7.75391 13.7482 7.7594 13.3819 7.80682 12.3456C7.8453 11.5087 7.96831 10.93 8.17583 10.3954C8.36537 9.88851 8.66428 9.42958 9.0513 9.0513C9.42939 8.66436 9.88807 8.36546 10.3947 8.17583C10.9307 7.96831 11.5087 7.8453 12.3456 7.80682C13.3819 7.7594 13.7475 7.75391 16.0001 7.75391C18.2519 7.75391 18.6182 7.7594 19.6545 7.80682V7.80682ZM16.0001 9.58661C13.7736 9.58661 13.4328 9.59142 12.4288 9.63747C11.7918 9.66633 11.4097 9.74741 11.0586 9.88416C10.7596 10.001 10.5693 10.1247 10.3466 10.3466C10.124 10.5693 10.0003 10.7596 9.88416 11.0586C9.7481 11.409 9.66633 11.7918 9.63747 12.4288C9.59142 13.4328 9.58661 13.7736 9.58661 16.0001C9.58661 18.2265 9.59142 18.5674 9.63747 19.5713C9.66633 20.2083 9.74741 20.5904 9.88416 20.9409C10.001 21.2405 10.1247 21.4308 10.3466 21.6535C10.5693 21.8761 10.7596 21.9998 11.0586 22.116C11.409 22.252 11.7918 22.3338 12.4288 22.3627C13.4334 22.4087 13.7743 22.4135 16.0001 22.4135C18.2265 22.4135 18.5667 22.4087 19.5713 22.3627C20.2083 22.3338 20.5904 22.2527 20.9416 22.116C21.2405 21.9991 21.4308 21.8754 21.6535 21.6535C21.8761 21.4308 21.9998 21.2405 22.116 20.9416C22.252 20.5911 22.3338 20.2083 22.3627 19.5713C22.4087 18.5667 22.4135 18.2258 22.4135 16.0001C22.4135 13.7743 22.4087 13.4334 22.3627 12.4288C22.3338 11.7918 22.2527 11.4097 22.116 11.0592C22.0188 10.7892 21.8605 10.5453 21.6535 10.3466C21.4548 10.1396 21.2109 9.98131 20.9409 9.88416C20.5904 9.7481 20.2077 9.66633 19.5706 9.63747C18.5667 9.59142 18.2258 9.58661 15.9994 9.58661H16.0001ZM16.0001 20.2757C14.8661 20.2757 13.7786 19.8252 12.9767 19.0234C12.1749 18.2216 11.7244 17.134 11.7244 16.0001C11.7244 14.8661 12.1749 13.7786 12.9767 12.9767C13.7786 12.1749 14.8661 11.7244 16.0001 11.7244C17.134 11.7244 18.2216 12.1749 19.0234 12.9767C19.8252 13.7786 20.2757 14.8661 20.2757 16.0001C20.2757 17.134 19.8252 18.2216 19.0234 19.0234C18.2216 19.8252 17.134 20.2757 16.0001 20.2757V20.2757ZM16.0001 18.4437C16.6481 18.4437 17.2697 18.1862 17.728 17.728C18.1862 17.2697 18.4437 16.6481 18.4437 16.0001C18.4437 15.352 18.1862 14.7304 17.728 14.2722C17.2697 13.8139 16.6481 13.5565 16.0001 13.5565C15.352 13.5565 14.7304 13.8139 14.2722 14.2722C13.8139 14.7304 13.5565 15.352 13.5565 16.0001C13.5565 16.6481 13.8139 17.2697 14.2722 17.728C14.7304 18.1862 15.352 18.4437 16.0001 18.4437V18.4437ZM20.2757 12.6404C20.0327 12.6404 19.7996 12.5439 19.6277 12.372C19.4559 12.2002 19.3593 11.9671 19.3593 11.7241C19.3593 11.4811 19.4559 11.248 19.6277 11.0761C19.7996 10.9043 20.0327 10.8077 20.2757 10.8077C20.5187 10.8077 20.7518 10.9043 20.9237 11.0761C21.0955 11.248 21.192 11.4811 21.192 11.7241C21.192 11.9671 21.0955 12.2002 20.9237 12.372C20.7518 12.5439 20.5187 12.6404 20.2757 12.6404Z" fill="white"/>
</g>
<defs>
<clipPath id="clip0_522_4808">
<rect width="16.4923" height="16.4923" fill="white" transform="translate(7.75391 7.75391)"/>
</clipPath>
</defs>
</svg>
